<?xml version="1.0" standalone="no"?><!DOCTYPE svg PUBLIC "-//W3C//DTD SVG 1.1//EN" "http://www.w3.org/Graphics/SVG/1.1/DTD/svg11.dtd"><svg t="1523346091141" class="icon" style="" viewBox="0 0 1024 1024" version="1.1" xmlns="http://www.w3.org/2000/svg" p-id="22562" xmlns:xlink="http://www.w3.org/1999/xlink" width="200" height="200"><defs><style type="text/css"></style></defs><path d="M864 96a32 32 0 0 1 32 32v832H128V128a32 32 0 0 1 32-32h192a32 32 0 0 1 32-32h256a32 32 0 0 1 32 32h192z m0 832V128h-192v32a32 32 0 0 1-32 32h-256a32 32 0 0 1-32-32V128H160v800h704zM384 160h256V96h-256v64z m80 502.624l-155.328-155.328a16 16 0 0 1 22.656-22.624l132.672 132.704 212.672-212.704a16 16 0 0 1 22.656 22.624L464 662.624z" fill="#666666" p-id="22563"></path></svg>