<?xml version="1.0" standalone="no"?><!DOCTYPE svg PUBLIC "-//W3C//DTD SVG 1.1//EN" "http://www.w3.org/Graphics/SVG/1.1/DTD/svg11.dtd"><svg t="1523345616208" class="icon" style="" viewBox="0 0 1024 1024" version="1.1" xmlns="http://www.w3.org/2000/svg" p-id="8585" xmlns:xlink="http://www.w3.org/1999/xlink" width="200" height="200"><defs><style type="text/css"></style></defs><path d="M153.6 76.8h716.8a25.6 25.6 0 0 1 25.6 25.6v768a25.6 25.6 0 0 1-25.6 25.6H153.6a25.6 25.6 0 0 1-25.6-25.6V102.4a25.6 25.6 0 0 1 25.6-25.6z m0 25.6v768h716.8V102.4H153.6z m25.6 844.8h665.6v-51.2H179.2v51.2z m-25.6-76.8h716.8v76.8a25.6 25.6 0 0 1-25.6 25.6H179.2a25.6 25.6 0 0 1-25.6-25.6v-76.8z m213.8624-316.2624L460.8 647.5008l195.7376-195.7632 18.1248 18.1248L460.8 683.6992l-111.4624-111.4368 18.1248-18.1248zM128 268.8v-25.6h768v25.6H128zM678.4 51.2h25.6v128h-25.6V51.2z m-358.4 0h25.6v128h-25.6V51.2z" fill="#666666" p-id="8586"></path></svg>