<?xml version="1.0" standalone="no"?><!DOCTYPE svg PUBLIC "-//W3C//DTD SVG 1.1//EN" "http://www.w3.org/Graphics/SVG/1.1/DTD/svg11.dtd"><svg t="1523346385282" class="icon" style="" viewBox="0 0 1024 1024" version="1.1" xmlns="http://www.w3.org/2000/svg" p-id="2601" xmlns:xlink="http://www.w3.org/1999/xlink" width="200" height="200"><defs><style type="text/css"></style></defs><path d="M283.072 726.528A559.616 559.616 0 0 1 160.64 266.816l-53.248-63.872a626.112 626.112 0 0 0 125.12 565.952 626.048 626.048 0 0 0 532.224 221.824l-53.248-63.872a559.616 559.616 0 0 1-428.416-200.32z m0 0A559.616 559.616 0 0 1 160.64 266.816l-53.248-63.872a626.112 626.112 0 0 0 125.12 565.952 626.048 626.048 0 0 0 532.224 221.824l-53.248-63.872a559.616 559.616 0 0 1-428.416-200.32z m621.312 124.608l-170.048-202.624c0.32 0.256-24.832 21.632-75.392 64a98.88 98.88 0 0 0-11.776 139.968l41.6 49.6a99.52 99.52 0 0 0 139.84 12.672l75.776-63.616z m-33.408 114.176a165.504 165.504 0 0 1-232.768-20.864l-41.6-49.536a164.864 164.864 0 0 1 19.904-232.896l75.84-63.616a65.984 65.984 0 0 1 92.544 7.68l170.432 203.072a65.536 65.536 0 0 1-8.512 92.48l-75.84 63.68zM267.84 92.48c0.256 0.32-24.896 21.696-75.456 64.064a98.88 98.88 0 0 0-11.776 139.968l41.6 49.536a99.52 99.52 0 0 0 139.84 12.736l75.84-63.68-170.048-202.624z m136.64 316.8a165.504 165.504 0 0 1-232.832-20.8l-41.6-49.536a164.864 164.864 0 0 1 19.968-232.96L225.792 42.496a65.984 65.984 0 0 1 92.608 7.68l170.432 203.072a65.536 65.536 0 0 1-8.512 92.48l-75.84 63.616z" fill="#59b2a9" p-id="2602"></path></svg>