<?xml version="1.0" standalone="no"?><!DOCTYPE svg PUBLIC "-//W3C//DTD SVG 1.1//EN" "http://www.w3.org/Graphics/SVG/1.1/DTD/svg11.dtd"><svg t="1523344551134" class="icon" style="" viewBox="0 0 1024 1024" version="1.1" xmlns="http://www.w3.org/2000/svg" p-id="2504" xmlns:xlink="http://www.w3.org/1999/xlink" width="200" height="200"><defs><style type="text/css"></style></defs><path d="M917.333333 365.184v615.978667h-306.645333V696.32a98.688 98.688 0 0 0-197.376 0v284.885333H106.666667V365.226667l-51.456 37.418666a21.333333 21.333333 0 1 1-25.088-34.56l419.157333-304.810666a106.624 106.624 0 0 1 125.44 0l419.157333 304.853333a21.333333 21.333333 0 0 1-25.088 34.517333L917.333333 365.184z m-42.666666-31.061333l-325.034667-236.373334a64 64 0 0 0-75.264 0L149.333333 334.08v604.373333h221.312V696.32a141.354667 141.354667 0 0 1 282.709334 0v242.218667H874.666667V334.122667z" p-id="2505"></path></svg>