<?xml version="1.0" standalone="no"?><!DOCTYPE svg PUBLIC "-//W3C//DTD SVG 1.1//EN" "http://www.w3.org/Graphics/SVG/1.1/DTD/svg11.dtd"><svg t="1523344569395" class="icon" style="" viewBox="0 0 1024 1024" version="1.1" xmlns="http://www.w3.org/2000/svg" p-id="2623" xmlns:xlink="http://www.w3.org/1999/xlink" width="200" height="200"><defs><style type="text/css"></style></defs><path d="M993.877333 375.082667L574.72 63.573333a104.618667 104.618667 0 0 0-125.482667 0L30.122667 375.04a22.016 22.016 0 0 0-4.693334 30.464 21.034667 21.034667 0 0 0 29.781334 4.821333L106.666667 372.138667V981.333333h306.688v-277.973333c0-55.594667 44.245333-100.821333 98.645333-100.821333s98.688 45.226667 98.688 100.821333V981.333333H917.333333V372.138667l51.456 38.229333a21.12 21.12 0 0 0 29.781334-4.821333 22.016 22.016 0 0 0-4.693334-30.464" p-id="2624" fill="#c83b33"></path></svg>