<?xml version="1.0" standalone="no"?><!DOCTYPE svg PUBLIC "-//W3C//DTD SVG 1.1//EN" "http://www.w3.org/Graphics/SVG/1.1/DTD/svg11.dtd"><svg t="1523344637891" class="icon" style="" viewBox="0 0 1024 1024" version="1.1" xmlns="http://www.w3.org/2000/svg" p-id="3191" xmlns:xlink="http://www.w3.org/1999/xlink" width="200" height="200"><defs><style type="text/css"></style></defs><path d="M674.581333 607.957333c5.845333 14.165333 16.725333 26.026667 31.274667 33.365334l225.365333 130.005333a191.786667 191.786667 0 0 1 89.344 117.589333l1.322667 5.12c10.624 40.533333-19.498667 80.426667-61.184 80.426667H63.338667c-41.685333 0-71.808-39.936-61.184-80.384l1.365333-5.205333a191.701333 191.701333 0 0 1 89.301333-117.546667l226.474667-130.602667a63.573333 63.573333 0 0 0 31.616-36.821333c43.392 48.64 101.12 84.650667 161.109333 84.650667 62.890667 0 119.978667-32.213333 162.56-80.64z m-162.56 36.906667c94.208 0 167.253333-94.592 187.861334-173.312 26.538667-101.461333 26.538667-193.024 26.538666-193.024 0-137.386667-96-228.992-214.4-228.992-118.4 0-214.4 102.528-214.4 228.992 0 0 0 91.562667 26.538667 193.024 14.037333 53.632 93.653333 173.312 187.861333 173.312z" p-id="3192" fill="#c83b33"></path></svg>