<?xml version="1.0" standalone="no"?><!DOCTYPE svg PUBLIC "-//W3C//DTD SVG 1.1//EN" "http://www.w3.org/Graphics/SVG/1.1/DTD/svg11.dtd"><svg t="1523344664230" class="icon" style="" viewBox="0 0 1024 1024" version="1.1" xmlns="http://www.w3.org/2000/svg" p-id="2624" xmlns:xlink="http://www.w3.org/1999/xlink" width="200" height="200"><defs><style type="text/css"></style></defs><path d="M512.086187 603.733333c64.426667 0 128.085333-68.053333 147.541333-145.365333 10.112-40.192 16.64-81.706667 20.224-122.069333A774.826667 774.826667 0 0 0 682.752853 283.733333c0-113.066667-73.514667-192-170.666666-192-93.696 0-170.666667 85.504-170.666667 192a774.826667 774.826667 0 0 0 2.901333 52.565334c3.626667 40.362667 10.112 81.92 20.224 122.026666 15.786667 62.805333 88.234667 145.365333 147.541334 145.365334z m-114.645334-12.970666l-2.090666 11.776a105.813333 105.813333 0 0 1-55.765334 76.245333l-225.408 130.005333a148.992 148.992 0 0 0-69.333333 91.349334l-1.322667 5.248c-3.626667 13.653333 6.4 26.88 19.882667 26.88h897.365333c13.482667 0 23.466667-13.226667 19.925334-26.965334l-1.365334-5.12a149.077333 149.077333 0 0 0-69.376-91.392l-224.256-129.450666a106.538667 106.538667 0 0 1-56.874666-76.8l-1.28-6.912c-32.853333 31.061333-73.045333 50.773333-115.456 50.773333-40.106667 0-80.896-22.954667-114.645334-55.637333z m-35.84-42.069334c-18.261333-25.898667-31.872-53.930667-38.4-79.957333-10.709333-42.496-17.578667-86.186667-21.376-128.64A817.28 817.28 0 0 1 298.752853 283.690667c0-129.109333 95.018667-234.666667 213.333334-234.666667 121.429333 0 213.333333 98.773333 213.333333 234.666667a817.28 817.28 0 0 1-3.072 56.405333c-3.797333 42.496-10.666667 86.144-21.333333 128.682667a271.530667 271.530667 0 0 1-37.674667 84.266666l7.466667 42.112c3.541333 20.010667 16.213333 37.12 35.114666 46.634667l225.365334 130.005333a191.786667 191.786667 0 0 1 89.344 117.632l1.322666 5.12c10.624 40.533333-19.498667 80.384-61.184 80.384H63.40352c-41.685333 0-71.808-39.893333-61.184-80.341333l1.365333-5.205333a191.701333 191.701333 0 0 1 89.301334-117.589334l226.474666-130.56c17.792-8.96 30.421333-26.026667 33.962667-46.08l8.234667-46.506666z" p-id="2625"></path></svg>