<?xml version="1.0" standalone="no"?><!DOCTYPE svg PUBLIC "-//W3C//DTD SVG 1.1//EN" "http://www.w3.org/Graphics/SVG/1.1/DTD/svg11.dtd"><svg t="1523157456240" class="icon" style="" viewBox="0 0 1024 1024" version="1.1" xmlns="http://www.w3.org/2000/svg" p-id="5803" xmlns:xlink="http://www.w3.org/1999/xlink" width="200" height="200"><defs><style type="text/css"></style></defs><path d="M478.583936 420.954401c0 37.332257-30.541597 67.88204-67.881017 67.88204l-241.275135 0c-37.331233 0-67.88204-30.54876-67.88204-67.88204L101.545744 169.406295c0-37.332257 30.549783-67.88204 67.88204-67.88204l241.275135 0c37.337373 0 67.881017 30.549783 67.881017 67.88204L478.583936 420.954401M478.583936 851.643514c0 37.332257-30.541597 67.88204-67.881017 67.88204l-241.275135 0c-37.331233 0-67.88204-30.549783-67.88204-67.88204L101.545744 600.100524c0-37.33942 30.549783-67.88204 67.88204-67.88204l241.275135 0c37.337373 0 67.881017 30.549783 67.881017 67.88204L478.583936 851.643514M919.538857 420.954401c0 37.332257-30.544667 67.88204-67.88204 67.88204L610.369402 488.836441c-37.33635 0-67.88204-30.54876-67.88204-67.88204L542.487362 169.406295c0-37.332257 30.544667-67.88204 67.88204-67.88204l241.286392 0c37.337373 0 67.88204 30.549783 67.88204 67.88204L919.537833 420.954401M919.547043 851.643514c0 37.332257-30.549783 67.88204-67.887157 67.88204L610.373495 919.525554c-37.337373 0-67.88204-30.549783-67.88204-67.88204L542.491455 600.100524c0-37.33942 30.544667-67.88204 67.88204-67.88204l241.286392 0c37.33635 0 67.887157 30.549783 67.887157 67.88204L919.547043 851.643514M919.547043 851.643514 919.547043 851.643514z" p-id="5804" fill="#c83b33"></path></svg>