<?xml version="1.0" standalone="no"?><!DOCTYPE svg PUBLIC "-//W3C//DTD SVG 1.1//EN" "http://www.w3.org/Graphics/SVG/1.1/DTD/svg11.dtd"><svg t="1508204444045" class="icon" style="" viewBox="0 0 1024 1024" version="1.1" xmlns="http://www.w3.org/2000/svg" p-id="4408" xmlns:xlink="http://www.w3.org/1999/xlink" width="200" height="200"><defs><style type="text/css"></style></defs><path d="M21.333333 0v1024" p-id="4409" fill="#999999"></path><path d="M42.666667 0v1024" p-id="4410" fill="#999999"></path><path d="M64 0v1024" p-id="4411" fill="#999999"></path><path d="M85.333333 0v1024" p-id="4412" fill="#999999"></path><path d="M106.666667 0v1024" p-id="4413" fill="#999999"></path><path d="M128 0v1024" p-id="4414" fill="#999999"></path><path d="M149.333333 0v1024" p-id="4415" fill="#999999"></path><path d="M170.666667 0v1024" p-id="4416" fill="#999999"></path><path d="M192 0v1024" p-id="4417" fill="#999999"></path><path d="M213.333333 0v1024" p-id="4418" fill="#999999"></path><path d="M234.666667 0v1024" p-id="4419" fill="#999999"></path><path d="M256 0v1024" p-id="4420" fill="#999999"></path><path d="M277.333333 0v1024" p-id="4421" fill="#999999"></path><path d="M298.666667 0v1024" p-id="4422" fill="#999999"></path><path d="M320 0v1024" p-id="4423" fill="#999999"></path><path d="M341.333333 0v1024" p-id="4424" fill="#999999"></path><path d="M362.666667 0v1024" p-id="4425" fill="#999999"></path><path d="M384 0v1024" p-id="4426" fill="#999999"></path><path d="M405.333333 0v1024" p-id="4427" fill="#999999"></path><path d="M426.666667 0v1024" p-id="4428" fill="#999999"></path><path d="M448 0v1024" p-id="4429" fill="#999999"></path><path d="M469.333333 0v1024" p-id="4430" fill="#999999"></path><path d="M490.666667 0v1024" p-id="4431" fill="#999999"></path><path d="M512 0v1024" p-id="4432" fill="#999999"></path><path d="M533.333333 0v1024" p-id="4433" fill="#999999"></path><path d="M554.666667 0v1024" p-id="4434" fill="#999999"></path><path d="M576 0v1024" p-id="4435" fill="#999999"></path><path d="M597.333333 0v1024" p-id="4436" fill="#999999"></path><path d="M618.666667 0v1024" p-id="4437" fill="#999999"></path><path d="M640 0v1024" p-id="4438" fill="#999999"></path><path d="M661.333333 0v1024" p-id="4439" fill="#999999"></path><path d="M682.666667 0v1024" p-id="4440" fill="#999999"></path><path d="M704 0v1024" p-id="4441" fill="#999999"></path><path d="M725.333333 0v1024" p-id="4442" fill="#999999"></path><path d="M746.666667 0v1024" p-id="4443" fill="#999999"></path><path d="M768 0v1024" p-id="4444" fill="#999999"></path><path d="M789.333333 0v1024" p-id="4445" fill="#999999"></path><path d="M810.666667 0v1024" p-id="4446" fill="#999999"></path><path d="M832 0v1024" p-id="4447" fill="#999999"></path><path d="M853.333333 0v1024" p-id="4448" fill="#999999"></path><path d="M874.666667 0v1024" p-id="4449" fill="#999999"></path><path d="M896 0v1024" p-id="4450" fill="#999999"></path><path d="M917.333333 0v1024" p-id="4451" fill="#999999"></path><path d="M938.666667 0v1024" p-id="4452" fill="#999999"></path><path d="M960 0v1024" p-id="4453" fill="#999999"></path><path d="M981.333333 0v1024" p-id="4454" fill="#999999"></path><path d="M1002.666667 0v1024M0 21.333333h1024" p-id="4455" fill="#999999"></path><path d="M0 42.666667h1024" p-id="4456" fill="#999999"></path><path d="M0 64h1024" p-id="4457" fill="#999999"></path><path d="M0 85.333333h1024" p-id="4458" fill="#999999"></path><path d="M0 106.666667h1024" p-id="4459" fill="#999999"></path><path d="M0 128h1024" p-id="4460" fill="#999999"></path><path d="M0 149.333333h1024" p-id="4461" fill="#999999"></path><path d="M0 170.666667h1024" p-id="4462" fill="#999999"></path><path d="M0 192h1024" p-id="4463" fill="#999999"></path><path d="M0 213.333333h1024" p-id="4464" fill="#999999"></path><path d="M0 234.666667h1024" p-id="4465" fill="#999999"></path><path d="M0 256h1024" p-id="4466" fill="#999999"></path><path d="M0 277.333333h1024" p-id="4467" fill="#999999"></path><path d="M0 298.666667h1024" p-id="4468" fill="#999999"></path><path d="M0 320h1024" p-id="4469" fill="#999999"></path><path d="M0 341.333333h1024" p-id="4470" fill="#999999"></path><path d="M0 362.666667h1024" p-id="4471" fill="#999999"></path><path d="M0 384h1024" p-id="4472" fill="#999999"></path><path d="M0 405.333333h1024" p-id="4473" fill="#999999"></path><path d="M0 426.666667h1024" p-id="4474" fill="#999999"></path><path d="M0 448h1024" p-id="4475" fill="#999999"></path><path d="M0 469.333333h1024" p-id="4476" fill="#999999"></path><path d="M0 490.666667h1024" p-id="4477" fill="#999999"></path><path d="M0 512h1024" p-id="4478" fill="#999999"></path><path d="M0 533.333333h1024" p-id="4479" fill="#999999"></path><path d="M0 554.666667h1024" p-id="4480" fill="#999999"></path><path d="M0 576h1024" p-id="4481" fill="#999999"></path><path d="M0 597.333333h1024" p-id="4482" fill="#999999"></path><path d="M0 618.666667h1024" p-id="4483" fill="#999999"></path><path d="M0 640h1024" p-id="4484" fill="#999999"></path><path d="M0 661.333333h1024" p-id="4485" fill="#999999"></path><path d="M0 682.666667h1024" p-id="4486" fill="#999999"></path><path d="M0 704h1024" p-id="4487" fill="#999999"></path><path d="M0 725.333333h1024" p-id="4488" fill="#999999"></path><path d="M0 746.666667h1024" p-id="4489" fill="#999999"></path><path d="M0 768h1024" p-id="4490" fill="#999999"></path><path d="M0 789.333333h1024" p-id="4491" fill="#999999"></path><path d="M0 810.666667h1024" p-id="4492" fill="#999999"></path><path d="M0 832h1024" p-id="4493" fill="#999999"></path><path d="M0 853.333333h1024" p-id="4494" fill="#999999"></path><path d="M0 874.666667h1024" p-id="4495" fill="#999999"></path><path d="M0 896h1024" p-id="4496" fill="#999999"></path><path d="M0 917.333333h1024" p-id="4497" fill="#999999"></path><path d="M0 938.666667h1024" p-id="4498" fill="#999999"></path><path d="M0 960h1024" p-id="4499" fill="#999999"></path><path d="M0 981.333333h1024" p-id="4500" fill="#999999"></path><path d="M0 1002.666667h1024" p-id="4501" fill="#999999"></path><path d="M810 274L572 512l238 238-60 60L512 572 274 810l-60-60L452 512 214 274l60-60L512 452l238-238z" p-id="4502" fill="#999999"></path></svg>