<?xml version="1.0" encoding="UTF-8"?>
<svg width="76px" height="88px" viewBox="0 0 76 88" version="1.1" xmlns="http://www.w3.org/2000/svg" xmlns:xlink="http://www.w3.org/1999/xlink">
    <!-- Generator: Sketch 46.2 (44496) - http://www.bohemiancoding.com/sketch -->
    <title>Group 5</title>
    <desc>Created with Sketch.</desc>
    <defs>
        <path d="M4.81530189,48.7227723 L23.4460879,48.7227723 L28.7837227,54.9509485 L48.4275492,54.9509485 L53.7222201,48.7227723 L71.3994603,48.7227723 L71.3994603,48.7227723 C73.6085993,48.7227723 75.3994603,50.5136333 75.3994603,52.7227723 L75.3994603,83.5651999 L75.3994603,83.5651999 C75.3994603,85.7743389 73.6085993,87.5651999 71.3994603,87.5651999 L4.81530189,87.5651999 L4.81530189,87.5651999 C2.60616289,87.5651999 0.815301893,85.7743389 0.815301893,83.5651999 L0.815301893,52.7227723 L0.815301893,52.7227723 C0.815301893,50.5136333 2.60616289,48.7227723 4.81530189,48.7227723 Z" id="path-1"></path>
    </defs>
    <g id="空白页" stroke="none" stroke-width="1" fill="none" fill-rule="evenodd">
        <g id="正在学习" transform="translate(-150.000000, -268.000000)">
            <g id="Group-5" transform="translate(150.000000, 268.000000)">
                <g id="Group-3" transform="translate(9.207921, 0.000000)" stroke="#ADADAD">
                    <path d="M0.5,46.9667612 L57.2634998,47.058355 L57.2634998,21.0279958 C57.2634998,20.1874487 56.9310419,19.3810197 56.3386728,18.7846823 L48.1813944,10.5726421 L39.471854,1.48113303 C38.8714494,0.85439694 38.0411646,0.5 37.1732454,0.5 L3.68316832,0.5 C1.925153,0.5 0.5,1.925153 0.5,3.68316832 L0.5,46.9667612 Z" id="Rectangle-10"></path>
                    <path d="M0.5,50.1055611 L57.2634998,49.8838076 L57.2634998,20.9794977 C57.2634998,19.2214823 55.8383468,17.7963293 54.0803315,17.7963293 L44.6528325,17.7963293 C42.3455587,17.7963293 40.4739463,15.9281815 40.4696714,13.6209116 L40.4512478,3.67727056 C40.4479948,1.92156103 39.0237975,0.5 37.268085,0.5 L3.68316832,0.5 C1.925153,0.5 0.5,1.925153 0.5,3.68316832 L0.5,50.1055611 Z" id="Rectangle-10"></path>
                </g>
                <rect id="Rectangle-6" fill="#000000" opacity="0.3" x="22.0990099" y="11.5742574" width="22.0990099" height="1" rx="0.5"></rect>
                <rect id="Rectangle-6-Copy" fill="#000000" opacity="0.3" x="22.0990099" y="24.4653465" width="31.3069307" height="1" rx="0.5"></rect>
                <rect id="Rectangle-6-Copy-2" fill="#000000" opacity="0.3" x="22.0990099" y="37.3564356" width="31.3069307" height="1" rx="0.5"></rect>
                <g id="Rectangle-14">
                    <use fill="#EEEEEE" fill-rule="evenodd" xlink:href="#path-1"></use>
                    <path stroke="#ADADAD" stroke-width="1" d="M53.9534199,49.2227723 L48.658749,55.4509485 L28.5537328,55.4509485 L23.2160979,49.2227723 L4.81530189,49.2227723 C2.88230527,49.2227723 1.31530189,50.7897757 1.31530189,52.7227723 L1.31530189,83.5651999 C1.31530189,85.4981965 2.88230527,87.0651999 4.81530189,87.0651999 L71.3994603,87.0651999 C73.3324569,87.0651999 74.8994603,85.4981965 74.8994603,83.5651999 L74.8994603,52.7227723 C74.8994603,50.7897757 73.3324569,49.2227723 71.3994603,49.2227723 L53.9534199,49.2227723 Z"></path>
                </g>
                <path d="M40.5576743,64.017073 L40.5576743,75.7775695 L40.5364725,75.7775695 C40.531704,77.2977104 39.2096662,78.8709146 37.2495955,79.5294748 C34.9560104,80.3000918 32.6573257,79.5265057 32.1153396,77.8016218 C31.5733534,76.0767379 32.9933049,74.0537346 35.28689,73.2831176 C36.6309637,72.8315249 37.9767887,72.9102314 38.9698122,73.3999179 L38.9698122,61 L40.5576743,61 L40.5576743,61.4124702 C41.1742664,62.1309734 42.1664298,62.4339334 43.5341645,62.3213501 C45.8759828,61.9245387 46.3946701,62.714968 46.9394216,63.4925323 C47.4841731,64.2700967 47.9121628,65.7675 48,65.983171 C47.4213563,65.57519 46.0748135,63.4925323 44.3257949,63.806056 C43.2304127,64.023603 41.7497894,64.2491338 40.5576743,64.017073 L40.5576743,64.017073 Z" id="Combined-Shape" fill="#ADADAD"></path>
            </g>
        </g>
    </g>
</svg>