<?xml version="1.0" encoding="UTF-8"?>
<svg width="73px" height="61px" viewBox="0 0 73 61" version="1.1" xmlns="http://www.w3.org/2000/svg" xmlns:xlink="http://www.w3.org/1999/xlink">
    <!-- Generator: Sketch 46.2 (44496) - http://www.bohemiancoding.com/sketch -->
    <title>icon</title>
    <desc>Created with Sketch.</desc>
    <defs></defs>
    <g id="空白页" stroke="none" stroke-width="1" fill="none" fill-rule="evenodd">
        <g id="最近练习" transform="translate(-151.000000, -232.000000)">
            <g id="icon" transform="translate(151.000000, 232.000000)">
                <path d="M36.0898821,59.9661818 L44.7531228,51.1134664 L44.9634049,51.1134664 L69.4948661,51.1134664 C70.8755779,51.1134664 71.9948661,49.9941783 71.9948661,48.6134664 L71.9948661,3.26293628 C71.9948661,1.88222441 70.8755779,0.762936282 69.4948661,0.762936282 L3,0.762936282 C1.61928813,0.762936282 0.5,1.88222441 0.5,3.26293628 L0.5,48.6134664 C0.5,49.9941783 1.61928813,51.1134664 3,51.1134664 L27.1478327,51.1134664 L36.0898821,59.9661818 Z" id="Rectangle-10" stroke="#ADADAD"></path>
                <path d="M44.2887204,34.4837926 L58.2741102,18.3576 L60.5880389,20.2992168 L46.6026491,36.4254093 C46.0535608,37.0585488 45.0981587,37.1342997 44.4561588,36.5955978 C43.8275102,36.068099 43.745512,35.1308563 44.2730109,34.5022077 C44.2781973,34.4960268 44.2834339,34.4898882 44.2887204,34.4837926 Z M58.5768018,17.9760065 L60.2154193,16.0303832 C60.7530308,15.3920467 61.7059827,15.3095483 62.3452969,15.8459966 C62.9831084,16.381184 63.0663017,17.3320874 62.5311143,17.9698989 L62.5293481,17.9719999 L60.8907305,19.9176232 L58.5768018,17.9760065 Z" id="Combined-Shape" fill="#ADADAD"></path>
                <path d="M13.7466756,16.1169607 L41.2403373,16.1169607 L41.2403373,16.1169607 C42.0256864,16.1169607 42.6623377,16.7536119 42.6623377,17.538961 L42.6623377,17.538961 C42.6623377,18.3243101 42.0256864,18.9609614 41.2403373,18.9609614 L13.7466756,18.9609614 C12.9613266,18.9609614 12.3246753,18.3243101 12.3246753,17.538961 L12.3246753,17.538961 L12.3246753,17.538961 C12.3246753,16.7536119 12.9613266,16.1169607 13.7466756,16.1169607 L13.7466756,16.1169607 Z M13.7467532,35.974026 C12.9613613,35.974026 12.3246753,35.33734 12.3246753,34.5519481 C12.3246753,33.7665561 12.9613613,33.1298701 13.7467532,33.1298701 L13.7467532,33.1298701 L31.7597403,33.1298701 C32.5451322,33.1298701 33.1818182,33.7665561 33.1818182,34.5519481 L33.1818182,34.5519481 C33.1818182,35.33734 32.5451322,35.974026 31.7597403,35.974026 L31.7597403,35.974026 L13.7467532,35.974026 Z" id="Combined-Shape" fill="#ADADAD"></path>
            </g>
        </g>
    </g>
</svg>
