<?xml version="1.0" standalone="no"?><!DOCTYPE svg PUBLIC "-//W3C//DTD SVG 1.1//EN" "http://www.w3.org/Graphics/SVG/1.1/DTD/svg11.dtd"><svg t="1507546650825" class="icon" style="" viewBox="0 0 1024 1024" version="1.1" xmlns="http://www.w3.org/2000/svg" p-id="3076" xmlns:xlink="http://www.w3.org/1999/xlink" width="200" height="200"><defs><style type="text/css"></style></defs><path d="M388 160c0-70.688 57.312-128 128-128s128 57.312 128 128c0 70.688-57.312 128-128 128s-128-57.312-128-128zM659.52 272.48c0-70.688 57.312-128 128-128s128 57.312 128 128c0 70.688-57.312 128-128 128s-128-57.312-128-128zM836 544c0-35.36 28.64-64 64-64s64 28.64 64 64c0 35.36-28.64 64-64 64s-64-28.64-64-64zM723.52 815.52c0-35.36 28.64-64 64-64s64 28.64 64 64c0 35.36-28.64 64-64 64s-64-28.64-64-64zM452 928c0 0 0 0 0 0 0-35.36 28.64-64 64-64s64 28.64 64 64c0 0 0 0 0 0 0 35.36-28.64 64-64 64s-64-28.64-64-64zM180.48 815.52c0 0 0 0 0 0 0-35.36 28.64-64 64-64s64 28.64 64 64c0 0 0 0 0 0 0 35.36-28.64 64-64 64s-64-28.64-64-64zM148.48 272.48c0 0 0 0 0 0 0-53.024 42.976-96 96-96s96 42.976 96 96c0 0 0 0 0 0 0 53.024-42.976 96-96 96s-96-42.976-96-96zM60 544c0-39.776 32.224-72 72-72s72 32.224 72 72c0 39.776-32.224 72-72 72s-72-32.224-72-72z" p-id="3077" fill="#999999"></path></svg>